# AST/ASF file generated using VICON BodyLanguage
# -----------------------------------------------
:version 1.10
:name VICON
:units
  mass 1.0
  length 0.45
  angle deg
:documentation
   .ast/.asf automatically generated from VICON data using
   VICON BodyBuilder and BodyLanguage model FoxedUp or BRILLIANT.MOD
:root
   order TX TY TZ RX RY RZ
   axis XYZ
   position 0 0 0  
   orientation 0 0 0 
:bonedata
  begin
     id 1 
     name lhipjoint
     direction 0.566809 -0.746272 0.349008 
     length 2.40479 
     axis 0 0 0  XYZ
  end
  begin
     id 2 
     name lfemur
     direction 0.34202 -0.939693 0  
     length 7.1578  
     axis 0 0 20  XYZ
    dof rx ry rz
    limits (-160.0 20.0)
           (-70.0 70.0)
           (-60.0 70.0)
  end
  begin
     id 3 
     name ltibia
     direction 0.34202 -0.939693 0   
     length 7.49137   
     axis 0 0 20   XYZ
    dof rx
    limits (-10.0 170.0)
  end
  begin
     id 4 
     name lfoot
     direction 0.0665746 -0.182912 0.980873   
     length 2.36784   
     axis -90 7.62852e-016 20   XYZ
    dof rx rz
    limits (-45.0 90.0)
           (-70.0 20.0)
  end
  begin
     id 5 
     name ltoes
     direction 1.53601e-011 -4.22058e-011 1   
     length 1.18966   
     axis -90 7.62852e-016 20   XYZ
    dof rx
    limits (-90.0 20.0)
  end
  begin
     id 6 
     name rhipjoint
     direction -0.550236 -0.756381 0.353735   
     length 2.37265  
     axis 0 0 0  XYZ 
  end
  begin
     id 7 
     name rfemur
     direction -0.34202 -0.939693 0   
     length 7.43386   
     axis 0 0 -20   XYZ
    dof rx ry rz
    limits (-160.0 20.0)
           (-70.0 70.0)
           (-70.0 60.0)
  end
  begin
     id 8 
     name rtibia
     direction -0.34202 -0.939693 0   
     length 7.50908   
     axis 0 0 -20   XYZ
    dof rx
    limits (-10.0 170.0)
 end
 begin
     id 9 
     name rfoot
     direction -0.0683029 -0.187661 0.979856   
     length 2.41173  
     axis -90 -7.62852e-016 -20   XYZ
    dof rx rz
    limits (-45.0 90.0)
           (-20.0 70.0)
  end
  begin
     id 10 
     name rtoes
     direction -1.53528e-011 -4.21968e-011 1   
     length 1.21082   
     axis -90 -7.62852e-016 -20   XYZ
    dof rx
    limits (-90.0 20.0)
  end
  begin
     id 11 
     name lowerback
     direction 0.013823 0.995423 -0.0945635   
     length 2.04495   
     axis 0 0 0   XYZ
    dof rx ry rz
    limits (-20.0 45.0)
           (-30.0 30.0)
           (-30.0 30.0)
  end
  begin
     id 12 
     name upperback
     direction 0.0276657 0.9994 -0.020853   
     length 2.05008   
     axis 0 0 0   XYZ
    dof rx ry rz
    limits (-20.0 45.0)
           (-30.0 30.0)
           (-30.0 30.0)
  end
  begin
     id 13 
     name thorax
     direction 0.019782 0.999531 0.0233827   
     length 2.06488   
     axis 0 0 0   XYZ
    dof rx ry rz
    limits (-20.0 45.0)
           (-30.0 30.0)
           (-30.0 30.0)
  end
  begin
     id 14 
     name lowerneck
     direction -0.0308541 0.994709 0.0979874   
     length 1.75553   
     axis 0 0 0   XYZ
    dof rx ry rz
    limits (-20.0 45.0)
           (-30.0 30.0)
           (-30.0 30.0)
  end
  begin
     id 15 
     name upperneck
     direction 0.0588398 0.995804 -0.0700903   
     length 1.76878   
     axis 0 0 0   XYZ
    dof rx ry rz
    limits (-20.0 45.0)
           (-30.0 30.0)
           (-30.0 30.0)
  end
  begin
     id 16
     name head
     direction 0.0209966 0.999159 -0.0352225  
     length 1.77193  
     axis 0 0 0   XYZ
    dof rx ry rz
    limits (-20.0 45.0)
           (-30.0 30.0)
           (-30.0 30.0)
  end
  begin
     id 17 
     name lclavicle
     direction 0.938182 0.335073 -0.0868338  
     length 3.58396  
     axis 0 0 0   XYZ
    dof ry rz
    limits (-20.0 10.0)
           (0.0 20.0)
  end
  begin
     id 18 
     name lhumerus
     direction 1 -4.48971e-011 -1.26313e-017   
     length 4.983   
     axis 180 -30 -90   XYZ
    dof rx ry rz
    limits (-60.0 90.0)
           (-90.0 90.0)
           (-90.0 90.0)
  end
  begin
     id 19
     name lradius
     direction 1 -4.48948e-011 -5.89033e-027   
     length 3.48356   
     axis 180 -30 -90   XYZ
    dof rx
    limits (-10.0 170.0)
  end
  begin
     id 20
     name lwrist
     direction 1 -4.48977e-011 -1.48983e-026   
     length 1.74178   
     axis 9.0955e-015 90 90   XYZ
    dof ry
    limits (-180.0 0.0)
 end
  begin
     id 21 
     name lhand
     direction 1 -4.49046e-011 -2.98066e-026   
     length 0.715259   
     axis 1.90115e-014 90 90   XYZ
    dof rx rz
    limits (-90.0 90.0)
           (-45.0 45.0)
  end
  begin
     id 22 
     name lfingers
     direction 1 -4.48907e-011 -5.95731e-026   
     length 0.576661   
     axis 3.80223e-014 90 90   XYZ
    dof rx
    limits (0.0 90.0)
  end
  begin
     id 23
     name lthumb
     direction 0.707107 -6.34963e-011 0.707107   
     length 0.827973   
     axis -90 45 -3.84942e-014   XYZ
    dof rx rz
    limits (-45.0 45.0)
           (-45.0 45.0)
  end
  begin
     id 24 
     name rclavicle
     direction -0.909637 0.398485 -0.11735   
     length 3.44819  
     axis 0 0 0   XYZ 
    dof ry rz
    limits (-10.0 20.0)
           (-20.0 0.0)
  end
  begin
     id 25 
     name rhumerus
     direction -1 -4.48978e-011 -1.09333e-027  
     length 5.2419   
     axis 180 30 90   XYZ
    dof rx ry rz
    limits (-90.0 60.0)
           (-90.0 90.0)
           (-90.0 90.0)
  end
  begin
     id 26 
     name rradius
     direction -1 -4.48953e-011 -7.61841e-027   
     length 3.44417   
     axis 180 30 90   XYZ
    dof rx
    limits (-10.0 170.0)
  end
  begin
     id 27 
     name rwrist
     direction -1 -4.48977e-011 -1.48983e-026   
     length 1.72209   
     axis 9.0955e-015 -90 -90   XYZ
    dof ry
    limits (-180.0 0.0)
  end
  begin
     id 28
     name rhand
     direction -1 -4.49027e-011 -2.98038e-026   
     length 0.622529   
     axis 1.90115e-014 -90 -90   XYZ
    dof rx rz
    limits (-90.0 90.0)
           (-45.0 45.0)
  end
  begin
     id 29
     name rfingers
     direction -1 -4.48838e-011 -5.95531e-026   
     length 0.501899   
     axis 3.80223e-014 -90 -90   XYZ
    dof rx
    limits (0.0 90.0)
  end
  begin
     id 30
     name rthumb
     direction -0.707107 -6.34937e-011 0.707107   
     length 0.720629   
     axis -90 -45 3.84942e-014   XYZ
    dof rx rz
    limits (-45.0 45.0)
           (-45.0 45.0)
  end
:hierarchy
  begin
    root lhipjoint rhipjoint lowerback
    lhipjoint lfemur
    lfemur ltibia
    ltibia lfoot
    lfoot ltoes
    rhipjoint rfemur
    rfemur rtibia
    rtibia rfoot
    rfoot rtoes
    lowerback upperback
    upperback thorax
    thorax lowerneck lclavicle rclavicle
    lowerneck upperneck
    upperneck head
    lclavicle lhumerus
    lhumerus lradius
    lradius lwrist
    lwrist lhand lthumb
    lhand lfingers
    rclavicle rhumerus
    rhumerus rradius
    rradius rwrist
    rwrist rhand rthumb
    rhand rfingers
  end

#!OML:ASF H:\Terrain\Patient Classification 1\PLAYGROUND\JustinFriday\JustinFriday.ASF
:FULLY-SPECIFIED
:DEGREES
571
root -20.8564 26.4606 -9.25172 310.444 81.2157 -61.3509
lowerback 25.3996 -1.11673 -1.45852
upperback 3.70124 -1.06616 4.08194
thorax -9.91274 -0.237701 5.75776
lowerneck -10.8441 -0.254288 -5.65671
upperneck -19.8988 2.55747 10.6554
head -4.355 1.65571 4.27698
rclavicle -2.62396e-014 2.82274e-014
rhumerus 37.1927 28.1516 -71.108
rradius 45.2929
rwrist 10.8384
rhand -31.054 -21.9558
rfingers 7.12502
rthumb -4.33525 -51.8914
lclavicle -2.62396e-014 2.82274e-014
lhumerus 5.57637 -25.8804 76.9524
lradius 53.6518
lwrist -26.2161
lhand -40.8945 -27.6665
lfingers 7.12502
lthumb -13.83 1.8537
rfemur -48.9201 -3.03625 26.0119
rtibia 92.14
rfoot -16.5049 -3.49788
rtoes 11.8623
lfemur -33.5308 10.5427 -16.7875
ltibia 48.1108
lfoot -19.1807 -4.75422
ltoes 17.3824
572
root -20.8269 26.522 -9.27808 311.497 80.9136 -60.5782
lowerback 25.0982 -1.10492 -0.92986
upperback 3.86664 -0.921968 3.98504
thorax -9.59641 -0.1992 5.27181
lowerneck -10.3791 -0.0665076 -4.25847
upperneck -21.0545 2.65883 9.35007
head -4.79069 1.65157 3.62173
rclavicle 3.04141e-014 1.94809e-014
rhumerus 37.0032 27.859 -72.0924
rradius 45.0711
rwrist 11.5281
rhand -31.216 -21.652
rfingers 7.12502
rthumb -4.4917 -51.5844
lclavicle 3.04141e-014 1.94809e-014
lhumerus 5.61088 -25.1605 76.8654
lradius 55.4295
lwrist -28.0364
lhand -40.9191 -31.7117
lfingers 7.12502
lthumb -13.8537 -2.19308
rfemur -50.6255 -3.10281 26.2958
rtibia 94.1872
rfoot -17.4442 -3.64388
rtoes 8.42938
lfemur -33.4902 13.6021 -17.287
ltibia 46.929
lfoot -18.0971 -6.39902
ltoes 14.0513
573
root -20.7991 26.6227 -9.33371 311.883 80.7876 -60.7784
lowerback 24.5794 -1.20048 -0.509443
upperback 3.87358 -0.923949 4.17534
thorax -9.32219 -0.21757 5.22067
lowerneck -10.1576 0.0826152 -3.75447
upperneck -21.6897 2.77017 8.524
head -5.03012 1.70137 3.27116
rclavicle 1.5704e-014 -1.31198e-014
rhumerus 37.0529 28.0338 -72.1942
rradius 44.9233
rwrist 11.965
rhand -31.015 -20.8102
rfingers 7.12502
rthumb -4.29758 -50.7466
lclavicle 1.5704e-014 -1.31198e-014
lhumerus 5.51359 -25.1025 77.1604
lradius 57.437
lwrist -28.5502
lhand -43.9442 -32.898
lfingers 7.12502
lthumb -16.7674 -3.60209
rfemur -52.6416 -3.50843 26.5454
rtibia 95.9431
rfoot -18.1262 -4.40481
rtoes 7.05328
lfemur -32.9553 9.95814 -16.9371
ltibia 45.5082
lfoot -18.2159 -1.96335
ltoes 11.9466
574
root -20.7826 26.6726 -9.32299 316.653 80.2175 -56.0337
lowerback 24.5489 -0.629503 -1.74875
upperback 4.06515 -0.448233 4.65007
thorax -9.11548 0.0512138 6.3232
lowerneck -10.3571 0.319278 -3.04016
upperneck -21.8828 2.81415 6.93581
head -5.05453 1.74696 2.64127
rclavicle 1.22253e-014 4.47266e-014
rhumerus 37.765 28.6065 -69.6641
rradius 45.6079
rwrist 10.6521
rhand -30.752 -20.2435
rfingers 7.12502
rthumb -4.04361 -50.1849
lclavicle 1.22253e-014 4.47266e-014
lhumerus 5.66801 -23.5748 77.6458
lradius 58.4659
lwrist -30.3881
lhand -44.163 -37.2444
lfingers 7.12502
lthumb -16.9781 -7.96642
rfemur -54.2976 -2.5815 26.74
rtibia 97.8851
rfoot -18.9833 -4.87625
rtoes 4.76349
lfemur -32.5425 15.0528 -17.8151
ltibia 44.2378
lfoot -17.3209 -5.25227
ltoes 11.0281
575
root -20.7811 26.7327 -9.33202 316.864 80.6272 -56.0576
lowerback 24.4146 -0.668138 -1.39531
upperback 4.12656 -0.465352 4.1806
thorax -8.98339 0.0176378 5.58235
lowerneck -10.479 0.35845 -2.65197
upperneck -21.742 2.93937 7.43544
head -4.99683 1.76754 2.7331
rclavicle -1.0138e-014 1.63003e-014
rhumerus 36.7171 27.1147 -72.3941
rradius 45.0369
rwrist 13.7046
rhand -29.8085 -18.9167
rfingers 7.12502
rthumb -3.13253 -48.8734
lclavicle -1.0138e-014 1.63003e-014
lhumerus 6.26684 -24.4593 76.8614
lradius 59.9544
lwrist -30.7664
lhand -46.1467 -38.9352
lfingers 7.12502
lthumb -18.8868 -9.83209
rfemur -56.0458 -2.9857 26.5652
rtibia 99.6295
rfoot -20.2017 -4.01283
rtoes 7.85093
lfemur -31.749 11.0726 -17.6092
ltibia 42.8088
lfoot -16.8134 -1.33355
ltoes 10.1555
576
root -20.7694 26.7964 -9.35009 316.586 80.9189 -55.9905
lowerback 25.1541 -0.726467 -1.1058
upperback 4.14841 -0.524048 3.56382
thorax -9.34845 -0.0204328 4.7613
lowerneck -10.4563 0.269939 -4.19262
upperneck -21.2392 3.3195 10.126
head -4.88665 1.96007 3.85492
rclavicle 2.42517e-014 -3.26007e-014
rhumerus 35.9887 26.6014 -74.0381
rradius 45.0495
rwrist 13.3839
rhand -31.2184 -20.2412
rfingers 7.12502
rthumb -4.49401 -50.1735
lclavicle 2.42517e-014 -3.26007e-014
lhumerus 6.30995 -25.6237 75.7028
lradius 61.946
lwrist -30.8906
lhand -48.1907 -40.8846
lfingers 7.12502
lthumb -20.8517 -11.9851
rfemur -57.066 -3.55832 26.3216
rtibia 101.181
rfoot -21.2204 -3.35103
rtoes 11.1254
lfemur -30.731 10.3891 -17.817
ltibia 41.5966
lfoot -16.2294 -0.668554
ltoes 9.81172
577
root -20.7598 26.8727 -9.38562 316.432 81.0747 -56.1771
lowerback 25.2986 -0.886748 -0.779824
upperback 4.23981 -0.680349 3.21324
thorax -9.3164 -0.110521 4.22978
lowerneck -11.6348 0.790151 -2.64661
upperneck -20.528 3.56191 8.04809
head -4.47644 2.09859 2.92977
rclavicle -1.23246e-014 -2.22639e-014
rhumerus 36.0386 26.4033 -74.4187
rradius 45.1733
rwrist 12.9898
rhand -31.3769 -20.3115
rfingers 7.12502
rthumb -4.64703 -50.2406
lclavicle -1.23246e-014 -2.22639e-014
lhumerus 6.17346 -27.3537 73.4563
lradius 64.8649
lwrist -29.8575
lhand -50.6989 -42.1399
lfingers 7.12502
lthumb -23.2597 -13.5248
rfemur -58.5621 -3.96173 26.2909
rtibia 102.528
rfoot -21.8586 -3.17232
rtoes 11.5411
lfemur -30.2013 10.0413 -17.8954
ltibia 40.4365
lfoot -15.4095 -0.869443
ltoes 10.9116
578
root -20.7429 26.9544 -9.40336 319.985 80.7011 -52.7075
lowerback 24.9037 -0.646096 -1.09437
upperback 4.61549 -0.428314 3.38196
thorax -8.70487 0.0103124 4.49745
lowerneck -11.9281 0.892154 -1.80021
upperneck -20.3766 3.59445 7.81334
head -4.37676 2.0742 2.71482
rclavicle 1.5704e-014 2.38542e-015
rhumerus 37.1211 26.7297 -72.7447
rradius 45.3639
rwrist 12.1771
rhand -31.4552 -20.4988
rfingers 7.12502
rthumb -4.72265 -50.4262
lclavicle 1.5704e-014 2.38542e-015
lhumerus 7.37716 -24.8067 74.6937
lradius 64.9177
lwrist -32.4489
lhand -52.1016 -44.6492
lfingers 7.12502
lthumb -24.6049 -16.2106
rfemur -59.9591 -3.37781 26.3111
rtibia 103.649
rfoot -22.5268 -3.16039
rtoes 11.1673
lfemur -29.6561 9.87505 -17.7695
ltibia 39.4053
lfoot -14.7364 -0.990823
ltoes 14.0837
579
root -20.7217 27.024 -9.43057 319.584 80.3721 -53.3371
lowerback 25.463 -0.524898 -0.858239
upperback 4.22371 -0.121514 4.0812
thorax -9.461 0.17858 5.07715
lowerneck -11.3106 0.835473 -2.90901
upperneck -20.4036 3.49792 7.43706
head -4.48211 2.08524 2.77638
rclavicle -9.34288e-015 2.56432e-014
rhumerus 36.4022 27.1267 -74.0756
rradius 44.3559
rwrist 14.5649
rhand -31.9086 -21.204
rfingers 7.12502
rthumb -5.16051 -51.1211
lclavicle -9.34288e-015 2.56432e-014
lhumerus 7.15095 -23.0309 76.4909
lradius 65.5081
lwrist -33.9816
lhand -51.8363 -46.6154
lfingers 7.12502
lthumb -24.3506 -18.1424
rfemur -61.3224 -3.13011 26.7798
rtibia 104.567
rfoot -23.3249 -3.0831
rtoes 9.92889
lfemur -29.2357 9.3536 -17.3283
ltibia 38.2915
lfoot -14.1889 -0.617016
ltoes 14.6693
580
root -20.6982 27.0697 -9.45559 316.406 80.222 -57.0155
lowerback 25.2463 -0.892587 0.00972663
upperback 4.0624 -0.329519 4.39867
thorax -9.51726 0.0614685 4.99701
lowerneck -10.9323 0.838103 -4.82628
upperneck -20.675 3.77225 8.26572
head -4.67128 2.31147 3.36103
rclavicle -1.02374e-014 1.41137e-014
rhumerus 36.1575 28.0961 -70.977
rradius 46.2565
rwrist 12.2742
rhand -31.9281 -21.8295
rfingers 7.12502
rthumb -5.17932 -51.7462
lclavicle -1.02374e-014 1.41137e-014
lhumerus 7.2372 -21.7871 76.6203
lradius 66.3931
lwrist -34.0426
lhand -51.0099 -47.521
lfingers 7.12502
lthumb -23.5581 -18.9439
rfemur -63.0814 -3.50317 27.6074
rtibia 105.513
rfoot -24.0604 -2.85513
rtoes 9.1276
lfemur -29.12 8.95459 -16.9052
ltibia 37.1923
lfoot -13.5894 -0.0478646
ltoes 11.9268
581
root -20.6782 27.1063 -9.45013 318.926 80.3909 -54.1309
lowerback 25.6505 -0.775654 0.00638999
upperback 4.2073 -0.231855 3.86485
thorax -9.57448 0.097839 4.37142
lowerneck -10.9946 0.747139 -4.34201
upperneck -20.7585 3.62295 8.18191
head -4.6704 2.21391 3.25398
rclavicle 2.38542e-015 2.26615e-014
rhumerus 35.9307 27.3974 -70.892
rradius 46.5582
rwrist 11.7651
rhand -31.6388 -20.7837
rfingers 7.12502
rthumb -4.89992 -50.7071
lclavicle 2.38542e-015 2.26615e-014
lhumerus 7.90299 -22.1561 75.2377
lradius 67.5597
lwrist -32.7069
lhand -50.6027 -45.821
lfingers 7.12502
lthumb -23.1674 -17.1942
rfemur -64.1377 -3.79863 27.4363
rtibia 106.498
rfoot -24.6024 -3.27165
rtoes 8.14381
lfemur -27.9357 9.5999 -17.5881
ltibia 35.9175
lfoot -13.1048 0.280267
ltoes 9.7059
582
root -20.6683 27.1236 -9.43411 322.01 80.7264 -50.7632
lowerback 26.0339 -0.622774 -0.555702
upperback 4.28633 -0.223804 3.49232
thorax -9.68134 0.114207 4.28359
lowerneck -10.8529 0.83667 -3.6976
upperneck -20.7013 3.6625 7.99172
head -4.66783 2.19077 3.08018
rclavicle 1.47101e-014 1.98785e-014
rhumerus 35.7422 27.0286 -70.7504
rradius 46.8464
rwrist 11.2918
rhand -31.3267 -20.0674
rfingers 7.12502
rthumb -4.59862 -49.9975
lclavicle 1.47101e-014 1.98785e-014
lhumerus 8.59227 -22.1098 73.7955
lradius 68.5532
lwrist -31.3658
lhand -50.4021 -41.8963
lfingers 7.12502
lthumb -22.975 -13.2455
rfemur -65.445 -4.30006 27.2381
rtibia 107.474
rfoot -25.0634 -4.09358
rtoes 6.66612
lfemur -27.3381 13.7875 -18.9831
ltibia 34.6026
lfoot -12.1161 -3.31366
ltoes 9.70105
583
root -20.6566 27.1815 -9.44097 324.016 80.5287 -48.851
lowerback 26.0843 -0.515784 -0.570786
upperback 4.25151 -0.116793 3.29876
thorax -9.75558 0.160264 4.04035
lowerneck -10.0845 0.977857 -2.09427
upperneck -21.4636 3.63658 6.8665
head -4.99814 2.08716 2.43965
rclavicle -6.55989e-015 3.4191e-014
rhumerus 35.566 26.9934 -70.5126
rradius 47.1713
rwrist 10.7675
rhand -31.3997 -20.1243
rfingers 7.12502
rthumb -4.6691 -50.0529
lclavicle -6.55989e-015 3.4191e-014
lhumerus 9.16407 -21.4759 72.901
lradius 69.2047
lwrist -30.3232
lhand -49.2703 -38.281
lfingers 7.12502
lthumb -21.8886 -9.4991
rfemur -66.8226 -4.76302 27.6521
rtibia 107.968
rfoot -25.4229 -4.16089
rtoes 7.162
lfemur -26.3043 9.67481 -18.2809
ltibia 33.1881
lfoot -11.7996 0.429937
ltoes 13.5363
584
root -20.6295 27.233 -9.46248 328.854 80.7644 -43.839
lowerback 26.3048 -0.400925 -1.00152
upperback 4.29616 -0.136759 2.88
thorax -9.81564 0.156839 3.82906
lowerneck -9.40076 1.20484 -1.42638
upperneck -22.0692 3.85281 6.17478
head -5.2923 2.15857 2.09225
rclavicle 1.39149e-014 -3.1408e-014
rhumerus 35.4208 26.8604 -70.4069
rradius 47.4726
rwrist 10.3978
rhand -31.0386 -19.7904
rfingers 7.12502
rthumb -4.32042 -49.7263
lclavicle 1.39149e-014 -3.1408e-014
lhumerus 9.63214 -20.4821 72.3451
lradius 69.7257
lwrist -29.6593
lhand -46.0721 -36.3608
lfingers 7.12502
lthumb -18.815 -7.2508
rfemur -67.7298 -3.95869 26.7735
rtibia 108.391
rfoot -26.0149 -3.96216
rtoes 10.0565
lfemur -25.3613 9.14662 -18.9904
ltibia 31.9889
lfoot -11.4046 0.653645
ltoes 16.9594
